<svg width="367" height="317" viewBox="0 0 367 317" fill="none" xmlns="http://www.w3.org/2000/svg">
<g clip-path="url(#clip0_4_4126)">
<g opacity="0.4">
<path d="M59.2652 313.678C146.199 313.678 216.667 244.207 216.667 158.477C216.667 72.7476 146.199 3.27689 59.2652 3.27689C-27.6683 3.27689 -98.1367 72.7924 -98.1367 158.522C-98.1367 244.252 -27.6683 313.723 59.2652 313.723V313.678Z" stroke="#E8E8E8" stroke-miterlimit="10"/>
<path d="M206.781 313.678C293.714 313.678 364.183 244.207 364.183 158.477C364.183 72.7476 293.714 3.27689 206.781 3.27689C119.847 3.27689 49.3789 72.7476 49.3789 158.477C49.3789 244.207 119.847 313.678 206.781 313.678Z" stroke="#E8E8E8" stroke-miterlimit="10"/>
<path d="M-98.7617 158.478H217.295" stroke="#E8E8E8" stroke-miterlimit="10"/>
</g>
</g>
<defs>
<clipPath id="clip0_4_4126">
<rect width="367" height="316" fill="white" transform="translate(0 0.500031)"/>
</clipPath>
</defs>
</svg>
