<svg width="130" height="25" viewBox="0 0 130 25" fill="none" xmlns="http://www.w3.org/2000/svg">
<g clip-path="url(#clip0_4_4499)">
<path d="M16.9277 20.2043L24.2313 18.2797L25.0826 15.2082L27.825 5.14768H21.1437L21.3083 5.80529L23.079 12.2971L23.2958 13.0228C23.3882 13.4158 23.3882 13.8048 23.2958 14.1777L23.2678 14.2659C23.2517 14.306 23.2115 14.3301 23.1714 14.3301C23.1272 14.3301 23.0951 14.298 23.083 14.2579L20.5936 5.14368H14.2616L17.8191 18.1594L20.6177 17.4536C20.6177 17.4536 20.6338 17.4536 20.6418 17.4536C20.6619 17.4536 20.6859 17.4616 20.698 17.4737C20.7221 17.4937 20.7381 17.5218 20.7381 17.5499V17.8466C20.7381 17.8907 20.7061 17.9268 20.6659 17.9388L20.18 18.0752L17.4016 18.8009C16.2893 19.0455 15.4743 19.3944 14.9844 19.8274C14.4182 20.3968 14.1372 20.9783 14.1573 21.5596C14.1733 22.141 14.4303 22.6863 14.9241 23.1796C15.4221 23.6768 16.0645 24.0216 16.8354 24.2141C17.6143 24.4106 18.5418 24.5108 19.5898 24.5108C22.0592 24.5108 24.5406 24.1098 26.9657 23.324V18.0752L26.1948 18.2877L17.0523 20.6575C16.9277 20.6815 16.8314 20.6655 16.7672 20.6093C16.6908 20.5492 16.6628 20.461 16.6949 20.3727C16.715 20.3126 16.7711 20.2284 16.9318 20.2003L16.9277 20.2043Z" fill="#EDF738"/>
<path d="M39.7317 5.27202C38.6316 4.67457 37.4793 4.6064 36.3068 5.0595C34.9778 5.56072 34.1305 6.62732 33.7772 8.2192V8.21117C33.7772 8.21117 33.7371 8.4678 33.5323 8.47582C33.3275 8.47983 33.3155 8.18712 33.3155 8.18712V8.19513L33.2874 5.12366H28.5977V22.1411H34.4197V17.6301C34.4197 17.5779 34.4639 17.5339 34.5161 17.5339H37.9691C38.8885 17.5339 39.6876 17.2011 40.3421 16.5515C40.9925 15.8979 41.3258 15.1 41.3258 14.1817V7.82624C41.3258 6.68747 40.8038 5.84942 39.7317 5.27202ZM34.9938 16.2588C34.9938 16.3109 34.9496 16.355 34.8974 16.355H34.52C34.4678 16.355 34.4237 16.3109 34.4237 16.2588V9.87526C34.4237 9.57451 34.5803 9.39004 34.8814 9.34996C34.9135 9.34996 34.9376 9.34996 34.9577 9.37404C34.9818 9.39408 34.9938 9.42211 34.9938 9.44619V16.2628V16.2588Z" fill="#EDF738"/>
<path d="M51.5534 5.15569C50.6139 4.90307 49.5779 4.77075 48.4737 4.77075C47.3695 4.77075 46.3337 4.90307 45.382 5.15569C44.4425 5.41232 43.6475 5.83735 43.0251 6.41476C42.4068 6.98414 42.0977 7.66179 42.0977 8.41963V14.1296C42.0977 14.8874 42.4108 15.557 43.0251 16.1184C43.6475 16.6878 44.4425 17.1128 45.3861 17.3774C46.3337 17.6421 47.3736 17.7784 48.4737 17.7784C49.5739 17.7784 50.6139 17.6421 51.5534 17.3774C52.4849 17.1128 53.2759 16.6878 53.8983 16.1184C54.5126 15.557 54.8217 14.8874 54.8217 14.1296V11.4229H48.9997V15.7695C48.9997 16.0703 48.8431 16.2507 48.542 16.2948C48.5139 16.2948 48.4858 16.2867 48.4657 16.2708C48.4456 16.2507 48.4296 16.2226 48.4296 16.1986V10.9458C48.4296 10.8937 48.4737 10.8495 48.5259 10.8495H54.8217V8.41563C54.8217 7.65778 54.5086 6.98013 53.8983 6.41075C53.2759 5.83334 52.4849 5.40831 51.5534 5.15168V5.15569ZM49.0037 9.6025C49.0037 9.65462 48.9596 9.69874 48.9074 9.69874H48.53C48.4818 9.69874 48.4336 9.65462 48.4336 9.6025V6.77564C48.4336 6.45485 48.5942 6.26239 48.8953 6.22228C48.9235 6.22228 48.9475 6.22228 48.9716 6.24635C48.9917 6.26639 49.0037 6.29447 49.0037 6.31852V9.60654V9.6025Z" fill="#EDF738"/>
<path d="M64.2625 4.79483C63.7044 4.71063 63.1222 4.83893 62.5319 5.17575C62.4556 5.21986 62.3873 5.28001 62.3151 5.32813L62.3272 5.30807C60.2995 6.69144 60.3155 5.12362 60.3155 5.12362H55.5977V17.5378H61.4197V9.87523C61.4197 9.57448 61.5762 9.39001 61.8774 9.34993C61.9096 9.34993 61.9336 9.34993 61.9537 9.37401C61.9778 9.39405 61.9899 9.42209 61.9899 9.44617V11.7758H66.3544V7.3731C66.3544 6.67942 66.1415 6.09399 65.732 5.62886C65.3185 5.16773 64.8246 4.88705 64.2625 4.79884V4.79483Z" fill="#EDF738"/>
<path d="M76.5767 5.15569C75.6372 4.90307 74.6013 4.77075 73.5011 4.77075C72.4009 4.77075 71.357 4.90307 70.4094 5.15569C69.4659 5.41232 68.6708 5.83735 68.0485 6.41476C67.4342 6.98414 67.125 7.66179 67.125 8.41963V14.1296C67.125 14.8874 67.4382 15.557 68.0485 16.1184C68.6708 16.6878 69.4659 17.1128 70.4094 17.3774C71.357 17.6421 72.3969 17.7784 73.5011 17.7784C74.6053 17.7784 75.6372 17.6421 76.5767 17.3774C77.5082 17.1128 78.2992 16.6878 78.9216 16.1184C79.5399 15.557 79.8491 14.8874 79.8491 14.1296V11.4229H74.0271V15.7695C74.0271 16.0703 73.8665 16.2507 73.5654 16.2948C73.5373 16.2948 73.5132 16.2867 73.489 16.2708C73.469 16.2507 73.4569 16.2226 73.4569 16.1986V10.9458C73.4569 10.8937 73.5011 10.8495 73.5533 10.8495H79.8491V8.41563C79.8491 7.65778 79.5359 6.98013 78.9216 6.41075C78.2992 5.83334 77.5082 5.40831 76.5767 5.15168V5.15569ZM74.0311 9.6025C74.0311 9.65462 73.9869 9.69874 73.9347 9.69874H73.5573C73.5051 9.69874 73.461 9.65462 73.461 9.6025V6.77564C73.461 6.45485 73.6176 6.26239 73.9186 6.22228C73.9508 6.22228 73.9749 6.22228 73.995 6.24635C74.0191 6.26639 74.0311 6.29447 74.0311 6.31852V9.60654V9.6025Z" fill="#EDF738"/>
<path d="M91.5026 5.16372C90.9846 4.92314 90.4141 4.79883 89.8041 4.79883C89.1932 4.79883 88.6236 4.89907 88.1694 5.09956C88.0369 5.15971 87.9084 5.23991 87.78 5.32812C86.1421 6.44684 85.8892 5.54064 85.8488 5.21986V5.12362H85.8407V5.1156V5.12362H81.2675V10.3444H86.9534V9.09329C86.9534 8.79254 87.1093 8.60807 87.4107 8.568H87.4269C87.4511 8.568 87.4753 8.57602 87.4867 8.59206C87.5109 8.61211 87.523 8.63619 87.523 8.66423V10.6571C87.523 10.7052 87.4867 10.7413 87.443 10.7493L83.4514 11.4751C82.5803 11.6515 81.8822 12.0364 81.3799 12.6299C80.874 13.2193 80.6211 13.9612 80.6211 14.8313C80.6211 15.7013 80.9744 16.4432 81.677 17.0045C82.388 17.5699 83.2308 17.8586 84.1948 17.8586C85.1862 17.8747 86.0775 17.606 86.8208 17.0527C87.5594 16.5073 88.041 15.5971 88.2502 14.3541C88.2583 14.306 88.2979 14.2739 88.3464 14.2739H88.5347C88.5872 14.2739 88.6316 14.318 88.6316 14.3701V17.5339H93.2406V7.8262C93.2406 7.23677 93.0798 6.70347 92.759 6.23834C92.4334 5.7692 92.0165 5.41232 91.5026 5.16372ZM87.5271 13.3476C87.5271 13.8127 87.3743 14.0694 87.0657 14.1175H87.0536C87.0293 14.1175 87.0051 14.1095 86.9889 14.0934C86.9687 14.0734 86.9574 14.0454 86.9574 14.0213V12.0003C86.9574 11.9523 86.9889 11.9161 87.0334 11.9041L87.4107 11.8239C87.439 11.8239 87.4673 11.8239 87.4907 11.844C87.5109 11.864 87.5271 11.8881 87.5271 11.9202V13.3476Z" fill="#EDF738"/>
<path d="M98.8906 0.516418L94.04 1.86771V3.03455C94.04 3.05861 94.0319 3.08266 94.0117 3.0987V17.5378H100.348V5.0274C100.348 4.99933 100.36 4.97928 100.376 4.95924L100.348 0.520428H98.8906V0.516418Z" fill="#EDF738"/>
<path d="M107.719 5.14771H101.355V17.5339H107.719V5.14771Z" fill="#EDF738"/>
<path d="M106.955 1.13392C106.293 0.724926 105.477 0.516418 104.538 0.516418C103.599 0.516418 102.783 0.724926 102.121 1.13793C101.462 1.54292 101.141 2.02008 101.141 2.58946C101.141 3.15885 101.462 3.64403 102.121 4.06105C102.783 4.48207 103.599 4.69057 104.538 4.69057C105.477 4.69057 106.293 4.47806 106.955 4.06105C107.614 3.64002 107.935 3.16286 107.935 2.58946C107.935 2.01607 107.614 1.54292 106.955 1.13392Z" fill="#EDF738"/>
<path d="M118.81 11.5032L118.601 11.4791L115.112 10.7493C115.067 10.7413 115.036 10.7012 115.036 10.6571V8.63619C115.036 8.60807 115.047 8.58404 115.071 8.56399C115.092 8.54395 115.116 8.53593 115.148 8.53994C115.449 8.58404 115.605 8.77654 115.605 9.09329V10.3444H121.319V5.12362H116.714V5.17976C116.686 5.45643 116.457 6.51501 114.481 5.30406L114.49 5.3201C114.337 5.22787 114.184 5.14768 114.023 5.08754C113.497 4.89506 112.907 4.79883 112.273 4.79883C111.313 4.79883 110.466 5.08352 109.755 5.65291C109.057 6.21427 108.699 6.94405 108.699 7.8262V7.9064C108.699 8.70835 108.944 9.41408 109.435 10.0115C109.92 10.6129 110.563 10.9979 111.346 11.1503L111.531 11.1783L115.016 11.9041C115.063 11.9161 115.092 11.9523 115.092 12.0003V13.9932C115.092 14.0213 115.079 14.0454 115.059 14.0654C115.036 14.0814 115.012 14.0934 114.983 14.0854C114.682 14.0413 114.522 13.8609 114.522 13.5601V12.3091H108.832V17.5298H113.413V17.4336C113.454 17.1328 113.723 16.2708 115.457 17.189C116.152 17.6261 116.963 17.8546 117.878 17.8546C118.794 17.8546 119.661 17.5659 120.368 17.0006C121.07 16.4391 121.423 15.7094 121.423 14.8272V14.7471C121.423 13.9451 121.178 13.2394 120.693 12.6379C120.207 12.0365 119.573 11.6555 118.806 11.4991L118.81 11.5032Z" fill="#EDF738"/>
<path d="M128.632 6.27845H129.668V5.12363H128.632C128.579 5.12363 128.536 5.07953 128.536 5.0274V1.70331H127.082L122.199 3.02653V14.8313C122.199 15.8096 122.686 16.5675 123.677 17.1449C124.681 17.7303 125.809 17.9629 127.034 17.8345C127.925 17.7383 129.668 17.1289 129.668 15.541C129.499 15.549 129.178 15.541 128.985 15.4247C128.688 15.2483 128.536 14.9837 128.536 14.6428V6.37468C128.536 6.32255 128.579 6.27845 128.632 6.27845Z" fill="#EDF738"/>
<path d="M14.1912 17.5378V7.72195C14.1912 6.64734 13.7696 5.83336 12.9384 5.29605C12.0551 4.70662 11.1035 4.6184 10.1198 5.03542C8.93531 5.54065 8.15637 6.61526 7.79902 8.21916V8.21115C7.79902 8.21115 7.75886 8.46777 7.54204 8.47579C7.32522 8.4798 7.31317 8.18709 7.31317 8.18709L7.26097 0.516418H5.83157L0.953125 1.86771V17.5378H7.26097V10.7814C7.26097 10.4606 7.41757 10.2682 7.71871 10.228C7.75083 10.228 7.77492 10.228 7.795 10.2521C7.81909 10.2721 7.83113 10.2962 7.83113 10.3243V17.5378H14.1912Z" fill="#EDF738"/>
</g>
<defs>
<clipPath id="clip0_4_4499">
<rect width="128.719" height="23.9984" fill="white" transform="translate(0.953125 0.516418)"/>
</clipPath>
</defs>
</svg>
