<svg width="33" height="34" viewBox="0 0 33 34" fill="none" xmlns="http://www.w3.org/2000/svg">
<g clip-path="url(#clip0_4_4102)">
<path d="M26.5409 13.5356C27.1047 13.7142 27.4267 14.0158 27.5012 14.4457C27.5757 14.8757 27.416 15.3341 27.0276 15.8157C26.6109 16.3244 26.1086 16.6645 25.5377 16.8306C23.3386 17.4358 20.8169 17.5002 17.9728 17.0127C19.9983 15.3968 22.2364 14.2528 24.6932 13.5639C25.3593 13.3718 25.9715 13.3623 26.5409 13.5356ZM18.8847 7.14496C19.3819 6.77697 19.8852 6.6539 20.3945 6.77585C20.7927 6.89539 21.0915 7.24093 21.3076 7.8185C21.4841 8.42304 21.483 9.01284 21.2933 9.57635C20.7212 11.4004 19.3184 13.5745 17.0961 16.0987C16.7703 13.5772 16.9939 11.1171 17.7614 8.72394C17.9809 8.06644 18.359 7.54016 18.8847 7.14496ZM24.493 23.9916C24.5311 24.5655 24.377 25.0185 24.0194 25.3616C23.6958 25.672 23.2318 25.7791 22.6328 25.6888C22.061 25.6268 21.5819 25.3888 21.1953 24.9857C19.725 23.4529 18.5461 21.2808 17.6645 18.4639C19.984 19.2911 22.0371 20.6246 23.8123 22.4753C24.2262 22.9067 24.4605 23.4123 24.4932 23.9805M8.53632 11.1526C8.5005 10.4675 8.6898 9.92619 9.10422 9.52866C9.45619 9.19103 9.99282 9.06863 10.7031 9.16136C11.3849 9.28123 11.9518 9.57677 12.3929 10.0366C13.7217 11.4218 14.8453 13.5705 15.7587 16.4659C12.727 15.3736 10.604 14.1944 9.38415 12.9228C8.88314 12.4005 8.60594 11.8161 8.53632 11.1526ZM14.9338 27.5038C14.4638 27.9001 13.9991 28.0407 13.5454 27.92C13.1473 27.8004 12.8593 27.4662 12.6759 26.9227C12.4937 26.3236 12.4948 25.7339 12.6902 25.1649C13.517 22.595 14.7128 20.4778 16.2831 18.808C16.711 21.5041 16.6066 23.8498 15.9752 25.8508C15.7545 26.5639 15.4036 27.1185 14.9336 27.5149M6.91994 21.4563C6.38573 21.1948 6.0656 20.8043 5.97065 20.2848C5.86775 19.8821 6.02757 19.4237 6.44425 18.9149C6.85986 18.4618 7.35597 18.1494 7.93234 17.9889C10.1315 17.3837 12.6198 17.3187 15.4082 17.805C12.9981 19.7244 10.7295 20.9958 8.59171 21.5968C8.00958 21.7626 7.45415 21.7177 6.91994 21.4563Z" fill="#EDF738"/>
</g>
<defs>
<clipPath id="clip0_4_4102">
<rect width="22.6721" height="20.1529" fill="white" transform="translate(16.9727 32.1211) rotate(-133.808)"/>
</clipPath>
</defs>
</svg>
