<svg width="16" height="27" viewBox="0 0 16 27" fill="none" xmlns="http://www.w3.org/2000/svg">
<g clip-path="url(#clip0_4_4218)">
<path d="M8 9.0877L6.40987 4.92188L6.43729 9.41868L3.47087 6.21728L5.11583 10.3546L1.21727 8.60835L4.23304 11.7641L0 11.7299L3.92049 13.419L0 15.1139L4.23304 15.0797L1.21727 18.2354L5.11583 16.4835L3.47087 20.6265L6.43729 17.4251L6.40987 21.9219L8 17.7561L9.59013 21.9219L9.56271 17.4251L12.5291 20.6265L10.8842 16.4835L14.7827 18.2354L11.767 15.0797L16 15.1139L12.0795 13.419L16 11.7299L11.767 11.7641L14.7827 8.60835L10.8842 10.3546L12.5291 6.21728L9.56271 9.41868L9.59013 4.92188L8 9.0877Z" fill="#E8E8E8"/>
</g>
<defs>
<clipPath id="clip0_4_4218">
<rect width="16" height="17" fill="white" transform="translate(0 4.92188)"/>
</clipPath>
</defs>
</svg>
