<svg width="16" height="17" viewBox="0 0 16 17" fill="none" xmlns="http://www.w3.org/2000/svg">
<g clip-path="url(#clip0_4_4275)">
<path d="M11.7456 8.09384C11.7456 10.0756 10.14 11.6756 8.16378 11.6756C6.18764 11.6756 4.58203 10.07 4.58203 8.09384C4.58203 6.1177 6.18764 4.51208 8.16378 4.51208C10.14 4.51208 11.7456 6.1177 11.7456 8.09384Z" fill="#DC2B46"/>
<path d="M8.16378 11.6756C10.142 11.6756 11.7456 10.072 11.7456 8.09384C11.7456 6.11569 10.142 4.51208 8.16378 4.51208C6.18563 4.51208 4.58203 6.11569 4.58203 8.09384C4.58203 10.072 6.18563 11.6756 8.16378 11.6756Z" stroke="#DC2B46" stroke-width="0.36" stroke-miterlimit="10"/>
<path d="M7.99999 0.0938721V16.0939M0 8.09387H16" stroke="#DC2B46" stroke-width="1.08" stroke-miterlimit="10"/>
</g>
<defs>
<clipPath id="clip0_4_4275">
<rect width="16" height="16" fill="white" transform="translate(0 0.0938721)"/>
</clipPath>
</defs>
</svg>
