<svg width="17" height="27" viewBox="0 0 17 27" fill="none" xmlns="http://www.w3.org/2000/svg">
<g clip-path="url(#clip0_4_4201)">
<path d="M12.6987 13.4218C12.6987 15.5275 11.093 17.2275 9.11692 17.2275C7.14078 17.2275 5.53516 15.5215 5.53516 13.4218C5.53516 11.3222 7.14078 9.61621 9.11692 9.61621C11.093 9.61621 12.6987 11.3222 12.6987 13.4218Z" fill="#E8E8E8"/>
<path d="M9.11692 17.2275C11.0951 17.2275 12.6987 15.5236 12.6987 13.4218C12.6987 11.32 11.0951 9.61621 9.11692 9.61621C7.13877 9.61621 5.53516 11.32 5.53516 13.4218C5.53516 15.5236 7.13877 17.2275 9.11692 17.2275Z" stroke="#E8E8E8" stroke-width="0.36" stroke-miterlimit="10"/>
<path d="M8.95312 4.92188V21.9219M0.953125 13.4219H16.9531" stroke="#E8E8E8" stroke-width="1.08" stroke-miterlimit="10"/>
</g>
<defs>
<clipPath id="clip0_4_4201">
<rect width="16" height="17" fill="white" transform="translate(0.953125 4.92188)"/>
</clipPath>
</defs>
</svg>
