<svg width="24" height="25" viewBox="0 0 24 25" fill="none" xmlns="http://www.w3.org/2000/svg">
<g clip-path="url(#clip0_4_4457)">
<path d="M16.5 0.54248H7.5C3.3585 0.54248 0 3.90098 0 8.04248V17.0425C0 21.184 3.3585 24.5425 7.5 24.5425H16.5C20.6415 24.5425 24 21.184 24 17.0425V8.04248C24 3.90098 20.6415 0.54248 16.5 0.54248ZM21.75 17.0425C21.75 19.9375 19.395 22.2925 16.5 22.2925H7.5C4.605 22.2925 2.25 19.9375 2.25 17.0425V8.04248C2.25 5.14748 4.605 2.79248 7.5 2.79248H16.5C19.395 2.79248 21.75 5.14748 21.75 8.04248V17.0425Z" fill="#E8E8E8"/>
<path d="M12 6.54248C8.6865 6.54248 6 9.22898 6 12.5425C6 15.856 8.6865 18.5425 12 18.5425C15.3135 18.5425 18 15.856 18 12.5425C18 9.22898 15.3135 6.54248 12 6.54248ZM12 16.2925C9.933 16.2925 8.25 14.6095 8.25 12.5425C8.25 10.474 9.933 8.79248 12 8.79248C14.067 8.79248 15.75 10.474 15.75 12.5425C15.75 14.6095 14.067 16.2925 12 16.2925Z" fill="#E8E8E8"/>
<path d="M18.4518 6.89197C18.8935 6.89197 19.2514 6.53401 19.2514 6.09247C19.2514 5.65091 18.8935 5.29297 18.4518 5.29297C18.0103 5.29297 17.6523 5.65091 17.6523 6.09247C17.6523 6.53401 18.0103 6.89197 18.4518 6.89197Z" fill="#E8E8E8"/>
</g>
<defs>
<clipPath id="clip0_4_4457">
<rect width="24" height="24" fill="white" transform="translate(0 0.54248)"/>
</clipPath>
</defs>
</svg>
