<svg width="724" height="724" viewBox="0 0 724 724" fill="none" xmlns="http://www.w3.org/2000/svg">
<g filter="url(#filter0_d_4_4424)">
<g clip-path="url(#clip0_4_4424)">
<g opacity="0.4">
<path d="M511.475 291.549L615.723 284.375C622.835 283.883 625.403 293.624 618.959 296.703L524.702 341.849C519.461 344.408 519.92 351.997 525.466 353.861L624.483 387.121C631.275 389.368 629.929 399.363 622.765 399.747L518.426 405.377C512.619 405.695 510.129 412.937 514.511 416.759L593.306 485.386C598.717 490.095 593.63 498.804 586.892 496.397L488.368 461.705C482.85 459.762 477.819 465.463 480.377 470.705L526.913 564.283C530.046 570.702 522.083 576.773 516.778 572.011L439.005 502.223C434.65 498.322 427.805 501.664 428.201 507.497L435.376 611.744C435.867 618.856 426.127 621.425 423.048 614.98L377.901 520.724C375.343 515.482 367.753 515.941 365.89 521.487L332.63 620.503C330.382 627.297 320.387 625.949 320.004 618.787L314.374 514.446C314.057 508.641 306.814 506.15 302.992 510.532L234.365 589.327C229.655 594.739 220.947 589.651 223.354 582.914L258.046 484.389C259.989 478.871 254.287 473.84 249.046 476.398L155.468 522.936C149.05 526.068 142.977 518.104 147.739 512.8L217.528 435.026C221.43 430.672 218.088 423.826 212.254 424.222L108.006 431.397C100.895 431.888 98.3268 422.149 104.77 419.069L199.028 373.923C204.269 371.365 203.809 363.774 198.265 361.912L99.247 328.651C92.4549 326.404 93.801 316.409 100.965 316.025L205.304 310.395C211.11 310.077 213.602 302.835 209.22 299.013L130.424 230.386C125.012 225.677 130.099 216.968 136.838 219.375L235.361 254.068C240.879 256.01 245.911 250.309 243.352 245.068L196.816 151.489C193.683 145.071 201.646 138.999 206.951 143.76L284.724 213.549C289.079 217.45 295.924 214.109 295.528 208.276L288.274 104C287.783 96.8885 297.522 94.3203 300.602 100.764L345.748 195.021C348.306 200.263 355.897 199.803 357.759 194.258L391.073 95.2147C393.321 88.4222 403.316 89.7687 403.7 96.9324L409.33 201.272C409.648 207.078 416.889 209.569 420.712 205.187L489.339 126.391C494.048 120.98 502.757 126.067 500.35 132.805L465.657 231.329C463.715 236.847 469.416 241.879 474.657 239.32L568.236 192.784C574.654 189.651 580.726 197.614 575.964 202.918L506.176 280.692C502.275 285.047 505.616 291.892 511.449 291.496L511.475 291.549Z" stroke="#E8E8E8" stroke-width="0.668651" stroke-miterlimit="10"/>
<path d="M462.576 313.627L532.874 308.789C537.67 308.459 539.402 315.027 535.057 317.103L471.495 347.546C467.96 349.272 468.271 354.391 472.009 355.646L538.781 378.075C543.361 379.59 542.454 386.331 537.622 386.589L467.262 390.386C463.347 390.601 461.667 395.485 464.623 398.062L517.758 444.339C521.407 447.515 517.976 453.388 513.432 451.765L446.994 428.37C443.273 427.06 439.88 430.905 441.605 434.44L472.986 497.542C475.099 501.87 469.73 505.965 466.152 502.755L413.706 455.693C410.77 453.062 406.153 455.315 406.421 459.249L411.26 529.548C411.591 534.343 405.023 536.074 402.946 531.729L372.503 468.169C370.777 464.634 365.659 464.944 364.403 468.684L341.974 535.454C340.458 540.035 333.719 539.126 333.459 534.296L329.663 463.936C329.449 460.021 324.565 458.341 321.988 461.295L275.71 514.43C272.535 518.08 266.662 514.649 268.284 510.105L291.679 443.666C292.989 439.947 289.144 436.552 285.61 438.278L222.507 469.66C218.179 471.773 214.084 466.402 217.295 462.825L264.356 410.379C266.987 407.443 264.734 402.827 260.8 403.094L190.502 407.932C185.707 408.264 183.974 401.696 188.319 399.619L251.881 369.175C255.415 367.45 255.105 362.332 251.366 361.075L184.594 338.647C180.015 337.131 180.923 330.391 185.753 330.132L256.114 326.336C260.029 326.122 261.709 321.238 258.753 318.661L205.618 272.383C201.97 269.207 205.4 263.335 209.943 264.958L276.382 288.352C280.103 289.662 283.496 285.817 281.771 282.283L250.389 219.18C248.277 214.852 253.647 210.757 257.224 213.968L309.669 261.029C312.605 263.66 317.222 261.406 316.954 257.473L312.063 187.156C311.732 182.361 318.299 180.629 320.376 184.974L350.82 248.535C352.545 252.07 357.663 251.76 358.92 248.021L381.384 181.232C382.9 176.652 389.641 177.559 389.899 182.39L393.696 252.75C393.909 256.666 398.793 258.346 401.37 255.391L447.648 202.255C450.824 198.607 456.696 202.036 455.074 206.58L431.678 273.019C430.37 276.74 434.213 280.133 437.748 278.408L500.852 247.026C505.18 244.914 509.275 250.284 506.063 253.86L459.002 306.306C456.372 309.243 458.625 313.859 462.558 313.591L462.576 313.627Z" stroke="#E8E8E8" stroke-width="0.668651" stroke-miterlimit="10"/>
<path d="M412.124 335.975L447.273 333.557C449.671 333.391 450.537 336.675 448.364 337.714L416.584 352.935C414.816 353.798 414.971 356.357 416.841 356.986L450.226 368.199C452.516 368.958 452.062 372.327 449.647 372.457L414.468 374.355C412.509 374.462 411.67 376.904 413.147 378.192L439.715 401.331C441.539 402.919 439.824 405.856 437.553 405.044L404.333 393.347C402.473 392.692 400.776 394.614 401.638 396.381L417.329 427.934C418.385 430.097 415.7 432.144 413.912 430.539L387.689 407.008C386.22 405.694 383.913 406.82 384.047 408.786L386.465 443.936C386.631 446.333 383.347 447.199 382.309 445.027L367.087 413.246C366.224 411.479 363.665 411.635 363.037 413.504L351.824 446.889C351.065 449.179 347.694 448.725 347.566 446.31L345.667 411.129C345.56 409.173 343.118 408.332 341.829 409.81L318.691 436.377C317.102 438.201 314.167 436.487 314.978 434.215L326.676 400.996C327.33 399.135 325.408 397.439 323.64 398.302L292.089 413.992C289.926 415.048 287.877 412.363 289.483 410.575L313.014 384.351C314.329 382.884 313.202 380.575 311.236 380.709L276.087 383.129C273.688 383.293 272.824 380.01 274.996 378.972L306.776 363.75C308.544 362.887 308.388 360.328 306.519 359.7L273.133 348.485C270.843 347.728 271.297 344.358 273.712 344.228L308.892 342.33C310.85 342.223 311.69 339.782 310.212 338.492L283.645 315.353C281.82 313.766 283.535 310.829 285.808 311.641L319.026 323.337C320.887 323.993 322.584 322.071 321.721 320.303L306.03 288.752C304.974 286.588 307.659 284.54 309.448 286.147L335.671 309.676C337.139 310.992 339.447 309.866 339.313 307.898L336.867 272.741C336.701 270.342 339.985 269.476 341.024 271.649L356.245 303.43C357.108 305.197 359.668 305.042 360.295 303.172L371.528 269.778C372.285 267.487 375.656 267.942 375.785 270.356L377.684 305.537C377.791 307.495 380.232 308.335 381.521 306.857L404.659 280.29C406.248 278.465 409.184 280.181 408.373 282.452L396.675 315.672C396.02 317.532 397.943 319.229 399.71 318.366L431.262 302.676C433.426 301.619 435.473 304.303 433.867 306.093L410.337 332.315C409.021 333.783 410.148 336.092 412.115 335.957L412.124 335.975Z" stroke="#E8E8E8" stroke-width="0.668651" stroke-miterlimit="10"/>
</g>
</g>
</g>
<defs>
<filter id="filter0_d_4_4424" x="-0.0078125" y="0.648682" width="723.352" height="723.352" filterUnits="userSpaceOnUse" color-interpolation-filters="sRGB">
<feFlood flood-opacity="0" result="BackgroundImageFix"/>
<feColorMatrix in="SourceAlpha" type="matrix" values="0 0 0 0 0 0 0 0 0 0 0 0 0 0 0 0 0 0 127 0" result="hardAlpha"/>
<feOffset dy="4"/>
<feGaussianBlur stdDeviation="2"/>
<feComposite in2="hardAlpha" operator="out"/>
<feColorMatrix type="matrix" values="0 0 0 0 0 0 0 0 0 0 0 0 0 0 0 0 0 0 0.25 0"/>
<feBlend mode="normal" in2="BackgroundImageFix" result="effect1_dropShadow_4_4424"/>
<feBlend mode="normal" in="SourceGraphic" in2="effect1_dropShadow_4_4424" result="shape"/>
</filter>
<clipPath id="clip0_4_4424">
<rect width="534.921" height="534.921" fill="white" transform="translate(484.707 0.648926) rotate(63.9828)"/>
</clipPath>
</defs>
</svg>
